<?xml version="1.0" encoding="utf-8"?>
<!-- Generator: Adobe Illustrator 15.1.0, SVG Export Plug-In . SVG Version: 6.00 Build 0)  -->
<!DOCTYPE svg PUBLIC "-//W3C//DTD SVG 1.1//EN" "http://www.w3.org/Graphics/SVG/1.1/DTD/svg11.dtd">
<svg version="1.1" id="Layer_1" xmlns="http://www.w3.org/2000/svg" xmlns:xlink="http://www.w3.org/1999/xlink" x="0px" y="0px"
	 width="95.453px" height="100px" viewBox="0 0 95.453 100" enable-background="new 0 0 95.453 100" xml:space="preserve">
<path d="M3.337,43.463c-0.216,1.638-3.234,4.062-3.332,5.712c-0.175,3,3.879,8.87,6.664,9.997
	c4.422,1.789,26.896,0.952,26.896,0.952c2.196,3.84-3.914,13.321-5.594,17.415c-2.467,5.999-2.051,13.959,1.069,18.048
	c3.81,4.996,10.805,5.329,10.949,3.093c1.042-16.214,4.146-20.712,8.302-23.918c2.496-1.926,4.679-3.611,5.83-6.546
	c7.083-18.038,12.332-22.214,15.332-22.214h2V5.003L50.458,1.098c0,0-26.065-2.467-34.272,0C13.604,1.872,9.147,5.75,8.094,8.238
	c-0.602,1.428,0.233,4.809-0.478,6.188c-1.049,2.043-5.479,4.602-5.475,7.378c0.004,1.979,2.311,5.405,2.143,7.379
	C4.118,31.158-0.003,33.867,0,35.847C0.009,37.924,3.611,41.403,3.337,43.463z"/>
<path d="M75.453,6.003c0-2.209,1.791-4,4-4h12c2.209,0,4,1.791,4,4v37.999c0,2.209-1.791,4-4,4h-12c-2.209,0-4-1.791-4-4V6.003z"/>
</svg>
